<svg width="13" height="11" viewBox="0 0 13 11" fill="none" xmlns="http://www.w3.org/2000/svg">
<g id="Group 4232">
<path id="Vector" d="M6.5001 10.2143C7.01294 10.2143 7.42868 9.79855 7.42868 9.28572C7.42868 8.77288 7.01294 8.35715 6.5001 8.35715C5.98727 8.35715 5.57153 8.77288 5.57153 9.28572C5.57153 9.79855 5.98727 10.2143 6.5001 10.2143Z" fill="#959595"/>
<path id="Vector_2" d="M3.93237 6.60799L4.58887 7.26403C5.1034 6.77407 5.78646 6.50044 6.49695 6.49967C7.20744 6.49889 7.89109 6.77102 8.40669 7.25985L9.06273 6.60381C8.37316 5.94063 7.45334 5.57058 6.49662 5.57144C5.53989 5.57231 4.62075 5.94356 3.93237 6.60799Z" fill="#959595"/>
<path id="Vector_3" d="M1.96338 4.63951L2.61988 5.29554C3.65614 4.28251 5.04749 3.71492 6.49665 3.71405C7.94581 3.71319 9.33784 4.27911 10.3753 5.2909L11.0313 4.63486C9.81996 3.44873 8.19181 2.78484 6.49641 2.78571C4.80102 2.78657 3.17355 3.45213 1.96338 4.63951Z" fill="#959595"/>
<path id="Vector_4" d="M13 2.6656C11.2677 0.957555 8.93274 0 6.5 0C4.06726 0 1.73228 0.957555 0 2.6656V2.67627L0.651857 3.32813C2.20922 1.79161 4.30874 0.929738 6.49649 0.92887C8.68425 0.928001 10.7845 1.7882 12.343 3.32349L13 2.66652V2.6656Z" fill="#959595"/>
</g>
</svg>
